<svg width="400" height="400" viewBox="0 0 400 400" fill="none" xmlns="http://www.w3.org/2000/svg">
  <!-- Background gradient -->
  <defs>
    <linearGradient id="grad3" x1="0%" y1="0%" x2="100%" y2="100%">
      <stop offset="0%" style="stop-color:#F59E0B;stop-opacity:0.1" />
      <stop offset="100%" style="stop-color:#EF4444;stop-opacity:0.1" />
    </linearGradient>
  </defs>
  <rect width="400" height="400" fill="url(#grad3)"/>
  
  <!-- Xiaomi style -->
  <rect x="110" y="50" width="180" height="300" rx="22" fill="#0F172A" stroke="#1E293B" stroke-width="2"/>
  
  <!-- Centered camera -->
  <circle cx="200" cy="62" r="5" fill="#334155"/>
  
  <!-- Screen -->
  <rect x="115" y="70" width="170" height="275" rx="18" fill="#FEF3C7"/>
  
  <!-- Mi logo area -->
  <rect x="125" y="85" width="145" height="50" rx="10" fill="#F59E0B" opacity="0.2"/>
  <text x="197" y="117" font-family="Arial, sans-serif" font-size="20" font-weight="bold" fill="#D97706" text-anchor="middle">MI</text>
  
  <!-- App grid -->
  <circle cx="145" cy="160" r="13" fill="#F59E0B"/>
  <circle cx="180" cy="160" r="13" fill="#F97316"/>
  <circle cx="215" cy="160" r="13" fill="#EF4444"/>
  <circle cx="250" cy="160" r="13" fill="#EC4899"/>
  
  <circle cx="145" cy="195" r="13" fill="#8B5CF6"/>
  <circle cx="180" cy="195" r="13" fill="#6366F1"/>
  <circle cx="215" cy="195" r="13" fill="#14B8A6"/>
  <circle cx="250" cy="195" r="13" fill="#10B981"/>
  
  <!-- Leica camera module -->
  <g transform="translate(115, 255)">
    <rect x="0" y="0" width="100" height="75" rx="14" fill="#1E293B"/>
    <text x="50" y="15" font-family="Arial, sans-serif" font-size="10" font-weight="bold" fill="#F59E0B" text-anchor="middle">LEICA</text>
    <circle cx="25" cy="38" r="14" fill="#334155"/>
    <circle cx="25" cy="38" r="10" fill="#0F172A"/>
    <circle cx="55" cy="38" r="14" fill="#334155"/>
    <circle cx="55" cy="38" r="10" fill="#0F172A"/>
    <circle cx="82" cy="38" r="14" fill="#334155"/>
    <circle cx="82" cy="38" r="10" fill="#0F172A"/>
    <rect x="15" y="60" width="70" height="8" rx="4" fill="#475569"/>
  </g>
  
  <!-- HyperOS text -->
  <text x="200" y="370" font-family="Arial, sans-serif" font-size="12" fill="#F59E0B" text-anchor="middle">HyperOS</text>
</svg>
