<svg width="400" height="400" viewBox="0 0 400 400" fill="none" xmlns="http://www.w3.org/2000/svg">
  <!-- Background gradient -->
  <defs>
    <linearGradient id="grad4" x1="0%" y1="0%" x2="100%" y2="100%">
      <stop offset="0%" style="stop-color:#10B981;stop-opacity:0.1" />
      <stop offset="100%" style="stop-color:#14B8A6;stop-opacity:0.1" />
    </linearGradient>
  </defs>
  <rect width="400" height="400" fill="url(#grad4)"/>
  
  <!-- OPPO Find X style -->
  <rect x="110" y="45" width="180" height="310" rx="26" fill="#065F46" stroke="#047857" stroke-width="2"/>
  
  <!-- Curved screen edges -->
  <rect x="112" y="65" width="176" height="285" rx="24" fill="#D1FAE5"/>
  
  <!-- Under-display camera area -->
  <rect x="170" y="70" width="60" height="8" rx="4" fill="#10B981" opacity="0.3"/>
  
  <!-- ColorOS interface -->
  <rect x="125" y="90" width="145" height="55" rx="12" fill="#10B981" opacity="0.2"/>
  <text x="197" y="125" font-family="Arial, sans-serif" font-size="18" font-weight="bold" fill="#059669" text-anchor="middle">ColorOS</text>
  
  <!-- App icons with rounded squares -->
  <rect x="130" y="165" width="30" height="30" rx="8" fill="#10B981"/>
  <rect x="170" y="165" width="30" height="30" rx="8" fill="#14B8A6"/>
  <rect x="210" y="165" width="30" height="30" rx="8" fill="#06B6D4"/>
  <rect x="250" y="165" width="30" height="30" rx="8" fill="#0EA5E9"/>
  
  <!-- Hasselblad camera module -->
  <g transform="translate(115, 265)">
    <rect x="0" y="0" width="95" height="70" rx="16" fill="#064E3B"/>
    <text x="47" y="18" font-family="Arial, sans-serif" font-size="9" font-weight="bold" fill="#10B981" text-anchor="middle">HASSELBLAD</text>
    <circle cx="25" cy="38" r="13" fill="#065F46"/>
    <circle cx="25" cy="38" r="9" fill="#022C22"/>
    <circle cx="52" cy="38" r="13" fill="#065F46"/>
    <circle cx="52" cy="38" r="9" fill="#022C22"/>
    <circle cx="78" cy="38" r="11" fill="#065F46"/>
    <circle cx="78" cy="38" r="7" fill="#022C22"/>
    <rect x="20" y="58" width="55" height="7" rx="3" fill="#047857"/>
  </g>
  
  <!-- OPPO branding -->
  <text x="200" y="370" font-family="Arial, sans-serif" font-size="16" font-weight="bold" fill="#10B981" text-anchor="middle">OPPO</text>
</svg>
